<?xml version="1.0" encoding="iso-8859-1"?>
<!-- Generator: Adobe Illustrator 19.0.0, SVG Export Plug-In . SVG Version: 6.00 Build 0)  -->
<svg version="1.1" id="Layer_1" xmlns="http://www.w3.org/2000/svg" xmlns:xlink="http://www.w3.org/1999/xlink" x="0px" y="0px"
	 viewBox="0 0 512 512" style="enable-background:new 0 0 512 512;" xml:space="preserve">
<circle style="fill:#F2CF61;" cx="256" cy="256" r="256"/>
<path style="fill:#E6E6E6;" d="M376,423.62c0,6.836-5.544,12.38-12.38,12.38H148.376c-6.836,0-12.38-5.544-12.38-12.38V92.376
	c0-6.836,5.544-12.38,12.38-12.38h215.248c6.836,0,12.38,5.544,12.38,12.38V423.62H376z"/>
<g>
	<circle style="fill:#406A80;" cx="255.408" cy="91.516" r="3.1"/>
	<path style="fill:#406A80;" d="M274.028,108h-37.244c-1.716,0-3.1-2.288-3.1-4c0-1.72,1.388-4,3.1-4h37.244c1.716,0,3.1,2.28,3.1,4
		C277.128,105.712,275.744,108,274.028,108z"/>
</g>
<rect x="144" y="116" style="fill:#395F73;" width="224" height="260"/>
<rect x="152" y="124" style="fill:#F5F5F5;" width="208" height="244"/>
<g>
	<rect x="196" y="124" style="fill:#406A80;" width="164" height="28"/>
	<rect x="152" y="152" style="fill:#406A80;" width="44" height="216"/>
	<rect x="160" y="132" style="fill:#406A80;" width="28" height="4"/>
	<rect x="208" y="160" style="fill:#406A80;" width="44" height="8"/>
	<rect x="304" y="308" style="fill:#406A80;" width="44" height="8"/>
	<rect x="316" y="324" style="fill:#406A80;" width="32" height="8"/>
	<rect x="208" y="184" style="fill:#406A80;" width="140" height="8"/>
	<rect x="208" y="200" style="fill:#406A80;" width="140" height="8"/>
	<rect x="208" y="216" style="fill:#406A80;" width="140" height="8"/>
	<rect x="208" y="232" style="fill:#406A80;" width="140" height="8"/>
	<rect x="208" y="248" style="fill:#406A80;" width="140" height="8"/>
	<rect x="160" y="140" style="fill:#406A80;" width="28" height="4"/>
</g>
<g>
	<path style="fill:#E6E6E6;" d="M344,84h-16c-2.212,0-4-1.788-4-4s1.788-4,4-4h16c2.212,0,4,1.788,4,4S346.212,84,344,84z"/>
	<path style="fill:#E6E6E6;" d="M136,136c-2.212,0-4-1.788-4-4v-20c0-2.212,1.788-4,4-4s4,1.788,4,4v20
		C140,134.212,138.212,136,136,136z"/>
	<path style="fill:#E6E6E6;" d="M136,172c-2.212,0-4-1.788-4-4v-12c0-2.212,1.788-4,4-4s4,1.788,4,4v12
		C140,170.212,138.212,172,136,172z"/>
	<path style="fill:#E6E6E6;" d="M136,200c-2.212,0-4-1.788-4-4v-12c0-2.212,1.788-4,4-4s4,1.788,4,4v12
		C140,198.212,138.212,200,136,200z"/>
</g>
<path style="fill:#406A80;" d="M256,392c-8.824,0-16,7.176-16,16s7.176,16,16,16s16-7.176,16-16S264.824,392,256,392z"/>
<g>
</g>
<g>
</g>
<g>
</g>
<g>
</g>
<g>
</g>
<g>
</g>
<g>
</g>
<g>
</g>
<g>
</g>
<g>
</g>
<g>
</g>
<g>
</g>
<g>
</g>
<g>
</g>
<g>
</g>
</svg>
